<svg 
    width="612px" 
    height="792px" 
    viewBox="0 0 612 792" 
    fill="currentColor" 
    xmlns="http://www.w3.org/2000/svg" 
>
    <path 
        d="M581.349,727.935l-74.519-13.309l-36.842,65.899c-26.748,33.109-43.722-21.281-51.438-40.247l-71.433-134.946
        c16.524-5.723,36.456-22.309,56.902-40.825c40.829,0.835,78.893-6.429,106.861-41.854l82.428,159.121l7.329,14.979
        C606.231,716.619,603.274,729.734,581.349,727.935z"
    />
    <path 
        d="M31.166,727.935l74.391-13.309l36.842,65.899c26.683,33.109,43.657-21.281,51.437-40.247l71.047-134.946
        c-16.524-5.723-36.392-22.309-56.902-40.825c-40.828,0.835-78.892-6.429-106.86-41.854L18.757,681.517l-7.202,15.236
        c-5.593,19.866-2.636,32.981,19.289,31.182H31.166z"
    />
    <path 
        d="M263.468,234.179l30.348,28.609l61.017-61.976c5.98-6.107,9.773-10.994,17.231-3.344l24.176,24.688
        c7.908,7.843,7.521,12.472,0,19.801l-88.923,86.922c-15.751,15.494-12.858,16.458-28.997,0.578l-55.809-55.547
        c-2.856-2.611-3.055-7.044-0.443-9.9c0.328-0.358,0.691-0.682,1.086-0.964l28.033-29.06c4.244-4.372,7.651-4.114,12.023,0
        L263.468,234.179z"
    />
    <path
        d="M537.435,202.806c-14.681-17.377-23.104-39.18-23.919-61.913c-1.156-17.487-1.863-35.232-17.103-57.862
        c-26.168-38.832-77.22-17.102-104.738-32.853c-19.61-11.187-35.363-28.867-49.572-37.868c-10.475-7.589-23.138-11.562-36.07-11.314
        c-12.967-0.21-25.651,3.808-36.134,11.443c-14.081,8.937-30.219,26.617-49.508,37.803c-27.583,15.751-78.634-5.722-104.738,32.853
        c-15.303,22.566-16.01,40.311-17.103,57.862c-0.874,22.721-9.29,44.504-23.918,61.912c-32.083,42.433-38.771,70.656-22.503,100.102
        c11.251,19.995,34.977,30.989,40.442,43.846c11.702,27.002-1.221,47.383,14.789,78.886c10.178,21.024,28.69,36.83,51.051,43.589
        c19.225,6.236,38.514-2.7,53.944,3.729c27.069,11.379,47,38.061,68.54,44.489c16.184,5.039,33.517,5.039,49.701,0
        c21.797-6.687,41.793-33.11,68.861-44.554c15.366-6.493,34.655,2.701,53.944-3.729c22.317-6.809,40.792-22.604,50.987-43.589
        c16.01-31.503,3.086-51.883,14.788-78.885c5.465-12.666,29.19-23.853,40.441-43.847
        C576.013,273.525,569.583,245.238,537.435,202.806z M305.132,420.494c-85.716-0.106-155.146-69.617-155.146-155.327
        c0-85.76,69.509-155.291,155.275-155.327h0.258c85.791,0.106,155.253,69.735,155.146,155.52
        C460.559,351.145,390.924,420.601,305.132,420.494z"
    />
</svg>