<svg
    xmlns="http://www.w3.org/2000/svg"
    width="80px"
    height="20px"
    viewBox="0 0 512 128"
    fill="none"
>
    <g id="Layer_9">
        <g>
            <path
                fill="currentColor"
                d="M429.445,15.971h33.988c11.793,0,20.301,2.16,25.521,6.476c5.22,4.318,7.83,9.775,7.83,16.372
            c0,4.948-1.91,9.436-5.728,13.46c-3.82,4.027-10.368,6.865-19.647,8.513c10.632,1.164,18.415,3.954,23.345,8.367
            c4.93,4.416,7.395,9.775,7.395,16.081c0,3.105-0.677,6.234-2.029,9.385c-1.355,3.154-3.65,6.04-6.888,8.659
            c-3.24,2.62-7.662,4.729-13.268,6.33c-5.607,1.601-12.712,2.401-21.315,2.401h-29.203V15.971z M450.964,60.831h6.235
            c6.475,0,11.14-1.498,13.992-4.495c2.851-2.995,4.277-8.215,4.277-15.66c0-7.733-1.305-13.243-3.915-16.53
            c-2.609-3.285-6.864-4.93-12.76-4.93h-7.83V60.831z M450.964,109.115h7.25c7.25,0,12.638-1.933,16.168-5.8
            c3.527-3.865,5.292-9.907,5.292-18.125c0-7.732-1.692-13.242-5.075-16.53c-3.385-3.285-8.942-4.93-16.675-4.93h-6.96V109.115z"/>
        </g>
        <polyline
            fill="currentColor"
            points="289.854,112 298.198,112 319.651,39.574 341.165,112 349.509,112 370.962,39.574 392.416,112 417.445,112 
        389.011,16 369.602,16 353.649,69.851 337.699,16 318.29,16 289.854,112 	"/>
        <polygon
            fill="currentColor"
            points="284.423,32.494 265.346,32.494 244.556,64.494 265.337,96.494 284.423,96.507 263.634,64.494 	" />
        <polygon
            fill="currentColor"
            points="204.688,32 223.765,32 244.556,64 223.774,96 204.688,96.013 225.477,64 	" />
        <polyline
            fill="currentColor"
            points="80.62,16 105.649,16 122.399,72.547 135.87,27.068 132.592,16 157.621,16 174.371,72.547 191.121,16 199.465,16 
        171.028,112 161.028,112.016 140.042,41.154 119.056,112.016 109.055,112 80.62,16 	"/>
        <path
            fill="currentColor"
            d="M39.597,112c-5.057,0-10.205-0.62-15.446-1.86c-5.567-1.318-9.965-3.079-13.102-4.896l0.29-7.874c0,0,0,0,7.24,2.669
        c3.65,1.346,5.054,1.959,7.991,2.899c1.958,0.627,4.636,1.087,6.339,1.407c1.7,0.323,3.606,0.423,5.723,0.423
        c5.606,0,8.782-0.781,12.437-3.332c3.938-2.748,5.688-6.091,5.688-10.873c0-4.503-1.025-6.76-3.231-9.289
        c-2.207-2.528-5.325-3.886-10.197-6.278l-6.077-2.438c-7.909-3.493-14.091-7.516-18.549-12.066
        c-4.461-4.551-6.689-10.596-6.689-18.135c0-5.424,1.401-10.113,4.207-14.067c2.803-3.952,6.71-6.986,11.722-9.102
        c5.01-2.114,10.872-3.172,17.584-3.172c4.872,0,9.492,0.644,13.859,1.931c4.366,1.288,8.159,3.034,11.378,5.24l-0.336,6.73
        l-9.9-5.082c0,0-5.67-2.485-7.691-3.037c-1.196-0.367-2.3-0.579-3.311-0.717c-1.013-0.138-2.299-0.195-3.861-0.195
        c-4.689,0-8.603,1.181-11.86,3.843c-2.526,2.064-4.818,5.606-4.827,9.078c-0.012,4.689,1.241,9.093,3.724,11.896
        c2.482,2.806,6.086,5.092,10.868,7.298l6.371,2.319c8.826,3.862,15.17,7.978,19.032,12.344c3.861,4.367,5.792,9.998,5.792,16.893
        c0,8.092-3.057,14.688-9.171,19.79C59.478,109.448,50.814,112,39.597,112z"/>
    </g>
</svg>