<svg
    xmlns="http://www.w3.org/2000/svg"
    width="32"
    height="32"
    fill="none"
    viewBox="0 0 48 48"
>
    <path
        fill="currentColor"
        d="M24.044.18C10.814.18.088 11.088.088 24.544c0 10.766 6.864 19.899 16.382 23.12 1.197.226 1.637-.528 1.637-1.172 0-.58-.022-2.5-.033-4.536-6.664 1.474-8.07-2.875-8.07-2.875-1.09-2.816-2.66-3.565-2.66-3.565-2.174-1.512.164-1.481.164-1.481 2.405.172 3.672 2.51 3.672 2.51 2.136 3.726 5.604 2.649 6.971 2.026.215-1.574.836-2.65 1.52-3.258-5.32-.616-10.913-2.705-10.913-12.041 0-2.66.935-4.834 2.468-6.54-.249-.614-1.069-3.092.232-6.448 0 0 2.012-.655 6.59 2.498 1.91-.54 3.96-.811 5.996-.82 2.035.009 4.086.28 6 .82 4.573-3.153 6.582-2.498 6.582-2.498 1.304 3.356.483 5.834.235 6.448 1.536 1.706 2.465 3.88 2.465 6.54 0 9.358-5.604 11.419-10.938 12.022.859.756 1.624 2.239 1.624 4.512 0 3.26-.027 5.883-.027 6.686 0 .649.431 1.408 1.645 1.17C41.143 44.435 48 35.305 48 24.544 47.999 11.087 37.273.18 24.043.18z"
    />
    <path
        fill="currentColor"
        d="M9.161 35.162c-.053.122-.24.158-.41.075-.174-.08-.272-.245-.215-.366.051-.125.239-.16.412-.077.174.08.273.247.213.368zM10.132 36.263c-.114.108-.338.058-.49-.113-.156-.17-.185-.397-.07-.506.118-.108.335-.057.492.113.157.172.187.397.068.506zM11.075 37.666c-.146.104-.386.007-.535-.21-.146-.217-.146-.477.004-.58.148-.105.385-.011.535.204.146.22.146.48-.004.586zM12.37 39.022c-.131.147-.411.108-.616-.093-.21-.197-.268-.476-.136-.623.133-.148.414-.106.62.093.208.197.272.477.132.623zM14.155 39.81c-.057.19-.327.277-.598.196-.271-.084-.449-.307-.394-.5.057-.192.327-.283.6-.196.271.083.449.305.392.5zM16.115 39.955c.007.201-.223.368-.508.37-.286.008-.518-.155-.521-.353 0-.202.225-.367.511-.372.285-.006.518.155.518.355zM17.94 39.64c.034.195-.164.397-.446.45-.278.052-.536-.07-.571-.264-.035-.2.167-.402.445-.454.283-.05.536.068.572.267z"
    />
</svg>